<?xml version="1.0" encoding="UTF-8" standalone="no"?>
<!-- Created with Inkscape (http://www.inkscape.org/) -->

<svg
        xmlns:dc="http://purl.org/dc/elements/1.1/"
        xmlns:cc="http://creativecommons.org/ns#"
        xmlns:rdf="http://www.w3.org/1999/02/22-rdf-syntax-ns#"
        xmlns:sodipodi="http://sodipodi.sourceforge.net/DTD/sodipodi-0.dtd"
        xmlns:inkscape="http://www.inkscape.org/namespaces/inkscape"
        xmlns="http://www.w3.org/2000/svg"
        width="108.47916mm"
        height="108.47916mm"
        viewBox="0 0 108.47916 108.47916"
        version="1.1"
        id="svg5279"
        inkscape:version="0.92.1 r15371"
        sodipodi:docname="logo_square_blue.svg">
    <defs
            id="defs5273"/>
    <sodipodi:namedview
            id="base"
            pagecolor="#ffffff"
            bordercolor="#666666"
            borderopacity="1.0"
            inkscape:pageopacity="0.0"
            inkscape:pageshadow="2"
            inkscape:zoom="0.35"
            inkscape:cx="-49.285729"
            inkscape:cy="-183.57145"
            inkscape:document-units="mm"
            inkscape:current-layer="layer1"
            showgrid="false"
            fit-margin-top="0"
            fit-margin-left="0"
            fit-margin-right="0"
            fit-margin-bottom="0"
            inkscape:window-width="1920"
            inkscape:window-height="1053"
            inkscape:window-x="0"
            inkscape:window-y="27"
            inkscape:window-maximized="1"/>
    <metadata
            id="metadata5276">
        <rdf:RDF>
            <cc:Work
                    rdf:about="">
                <dc:format>image/svg+xml</dc:format>
                <dc:type
                        rdf:resource="http://purl.org/dc/dcmitype/StillImage"/>
                <dc:title></dc:title>
            </cc:Work>
        </rdf:RDF>
    </metadata>
    <g
            inkscape:label="Layer 1"
            inkscape:groupmode="layer"
            id="layer1"
            transform="translate(49.703865,8.2157688)">
        <rect
                style="opacity:0.95999995;fill:#1e546c;fill-opacity:0.96078431;stroke:none;stroke-width:6.01354027;stroke-linecap:round;stroke-linejoin:round;stroke-miterlimit:4;stroke-dasharray:none;stroke-dashoffset:0;stroke-opacity:1"
                id="rect16923-8"
                width="108.47916"
                height="108.47916"
                x="-49.703865"
                y="-8.2157688"
                ry="10.952227"/>
        <g
                id="g4644"
                transform="matrix(0.35277777,0,0,-0.35277777,-378.38819,183.60715)">
            <path
                    inkscape:connector-curvature="0"
                    id="path4501-8"
                    style="opacity:0.95999995;fill:#ffffff;fill-opacity:0.98039216;fill-rule:nonzero;stroke:#ffffff;stroke-width:11.25;stroke-linecap:round;stroke-linejoin:round;stroke-miterlimit:4;stroke-dasharray:none;stroke-opacity:1"
                    d="m 1163.829,340.9942 c -2.3282,0 -4.2214,2.19567 -4.2214,4.89464 0,2.69965 1.8932,4.89532 4.2214,4.89532 2.3271,0 4.2203,-2.19567 4.2203,-4.89532 0,-2.69897 -1.8932,-4.89464 -4.2203,-4.89464 z m -78.4108,63.80646 c -14.3874,0 -28.546,4.215 -41.0755,12.18663 l 41.0755,82.85078 41.0644,-82.83001 c -12.4179,-7.88985 -26.5002,-12.2074 -41.0644,-12.2074 z M 1007.079,340.9942 c -2.3277,0 -4.2209,2.19567 -4.2209,4.89464 0,2.69965 1.8932,4.89532 4.2209,4.89532 2.3276,0 4.2208,-2.19567 4.2208,-4.89532 0,-2.69897 -1.8932,-4.89464 -4.2208,-4.89464 z m 153.6208,116.07905 c 2.3271,0 4.2203,-2.19565 4.2203,-4.89529 0,-2.69898 -1.8932,-4.89529 -4.2203,-4.89529 -2.3277,0 -4.2208,2.19631 -4.2208,4.89529 0,2.69964 1.8931,4.89529 4.2208,4.89529 z m 3.1292,-102.18602 c -0.7905,0 -1.5527,-0.13941 -2.271,-0.39474 l -30.2403,60.99618 c 10.2625,7.16131 19.2913,16.7629 26.4639,28.35709 0.9014,-0.42627 1.8856,-0.66621 2.9182,-0.66621 4.2781,0 7.758,4.03673 7.758,8.99841 0,4.96232 -3.4799,8.99838 -7.758,8.99838 -4.2786,0 -7.7585,-4.03606 -7.7585,-8.99838 0,-2.28479 0.7437,-4.3665 1.9572,-5.95492 -6.8721,-11.10558 -15.5183,-20.30772 -25.3445,-27.1775 l -44.1358,89.02488 -76.1318,-153.55918 c -0.7003,0.24195 -1.44,0.37599 -2.2074,0.37599 -4.2786,0 -7.75862,-4.03608 -7.75862,-8.99839 0,-4.96166 3.48002,-8.99774 7.75862,-8.99774 4.2786,0 7.7585,4.03608 7.7585,8.99774 0,2.59777 -0.9598,4.93485 -2.4819,6.57891 l 11.9284,24.06049 18.2951,36.90219 c 13.0657,-8.32885 27.8339,-12.73287 42.8391,-12.73287 15.1923,0 29.8814,4.51059 42.8281,12.75295 l 30.2582,-61.03304 c -1.495,-1.64135 -2.4346,-3.95765 -2.4346,-6.52863 0,-4.96166 3.48,-8.99774 7.7591,-8.99774 4.278,0 7.758,4.03608 7.758,8.99774 0,4.96231 -3.48,8.99839 -7.758,8.99839"
                    sodipodi:nodetypes="sssssscccsssssssssssccccssssccccsssscccsccsssc"/>
            <text
                    transform="scale(1,-1)"
                    xml:space="preserve"
                    style="font-style:normal;font-variant:normal;font-weight:normal;font-stretch:normal;font-size:68.52174377px;line-height:125%;font-family:'Ubuntu Condensed';-inkscape-font-specification:'Ubuntu Condensed, ';letter-spacing:0px;word-spacing:0px;fill:#ffffff;fill-opacity:0.98039216;stroke:none;stroke-width:0.91770202px;stroke-linecap:butt;stroke-linejoin:miter;stroke-opacity:1"
                    x="990.41656"
                    y="-267.87787"
                    id="text4505-6"><tspan
           sodipodi:role="line"
           id="tspan4503-8"
           x="990.41656"
           y="-267.87787"
           style="font-style:normal;font-variant:normal;font-weight:normal;font-stretch:normal;font-family:'Khmer OS';-inkscape-font-specification:'Khmer OS';fill:#ffffff;fill-opacity:0.98039216;stroke:none;stroke-width:0.91770202px;stroke-opacity:1">CUBE</tspan></text>
        </g>
    </g>
</svg>
