<?xml version="1.0" encoding="UTF-8" standalone="no"?>
<!-- Created with Inkscape (http://www.inkscape.org/) -->

<svg
        xmlns:dc="http://purl.org/dc/elements/1.1/"
        xmlns:cc="http://creativecommons.org/ns#"
        xmlns:rdf="http://www.w3.org/1999/02/22-rdf-syntax-ns#"
        xmlns:sodipodi="http://sodipodi.sourceforge.net/DTD/sodipodi-0.dtd"
        xmlns:inkscape="http://www.inkscape.org/namespaces/inkscape"
        xmlns="http://www.w3.org/2000/svg"
        width="245.32378mm"
        height="65.48629mm"
        viewBox="0 0 245.32378 65.48629"
        version="1.1"
        id="svg5907"
        inkscape:version="0.92.1 r15371"
        sodipodi:docname="logo_rect_white.svg">
    <defs
            id="defs5901"/>
    <sodipodi:namedview
            id="base"
            pagecolor="#ffffff"
            bordercolor="#666666"
            borderopacity="1.0"
            inkscape:pageopacity="0.0"
            inkscape:pageshadow="2"
            inkscape:zoom="0.35"
            inkscape:cx="1592.1754"
            inkscape:cy="166.61075"
            inkscape:document-units="mm"
            inkscape:current-layer="layer1"
            showgrid="false"
            fit-margin-top="0"
            fit-margin-left="0"
            fit-margin-right="0"
            fit-margin-bottom="0"
            inkscape:window-width="1920"
            inkscape:window-height="1053"
            inkscape:window-x="0"
            inkscape:window-y="27"
            inkscape:window-maximized="1"/>
    <metadata
            id="metadata5904">
        <rdf:RDF>
            <cc:Work
                    rdf:about="">
                <dc:format>image/svg+xml</dc:format>
                <dc:type
                        rdf:resource="http://purl.org/dc/dcmitype/StillImage"/>
                <dc:title></dc:title>
            </cc:Work>
        </rdf:RDF>
    </metadata>
    <g
            inkscape:label="Layer 1"
            inkscape:groupmode="layer"
            id="layer1"
            transform="translate(484.00713,-127.42947)">
        <g
                transform="matrix(0.35277777,0,0,-0.35277777,-716.57497,207.9747)"
                id="g5887">
            <path
                    sodipodi:nodetypes="sssssscccsssssssssssccccssssccccsssscccsccsssc"
                    d="m 829.38105,55.61669 c -2.32824,0 -4.22138,2.19567 -4.22138,4.89463 0,2.69966 1.89314,4.89532 4.22138,4.89532 2.32712,0 4.22026,-2.19566 4.22026,-4.89532 0,-2.69896 -1.89314,-4.89463 -4.22026,-4.89463 z m -78.41086,63.80645 c -14.38737,0 -28.54592,4.215 -41.07542,12.18663 l 41.07542,82.85078 41.06447,-82.83 c -12.41797,-7.88985 -26.50024,-12.20741 -41.06447,-12.20741 z m -78.3392,-63.80645 c -2.32767,0 -4.22081,2.19567 -4.22081,4.89463 0,2.69966 1.89314,4.89532 4.22081,4.89532 2.32769,0 4.22081,-2.19566 4.22081,-4.89532 0,-2.69896 -1.89312,-4.89463 -4.22081,-4.89463 z m 153.62087,116.07904 c 2.32711,0 4.22024,-2.19565 4.22024,-4.89529 0,-2.69898 -1.89313,-4.89529 -4.22024,-4.89529 -2.32769,0 -4.22082,2.19631 -4.22082,4.89529 0,2.69964 1.89313,4.89529 4.22082,4.89529 z m 3.12919,-102.18602 c -0.79053,0 -1.55275,-0.1394 -2.27105,-0.39474 l -30.24024,60.99618 c 10.26249,7.16132 19.29123,16.76291 26.46383,28.35709 0.90149,-0.42627 1.8856,-0.66621 2.91827,-0.66621 4.27803,0 7.75799,4.03673 7.75799,8.99841 0,4.96232 -3.47996,8.99838 -7.75799,8.99838 -4.2786,0 -7.75857,-4.03606 -7.75857,-8.99838 0,-2.28479 0.74373,-4.3665 1.95726,-5.95492 -6.87208,-11.10558 -15.51827,-20.30772 -25.34448,-27.1775 L 750.97019,222.6929 674.83848,69.13372 c -0.70038,0.24196 -1.44006,0.37599 -2.20749,0.37599 -4.27859,0 -7.75855,-4.03607 -7.75855,-8.99839 0,-4.96165 3.47996,-8.99773 7.75855,-8.99773 4.2786,0 7.75857,4.03608 7.75857,8.99773 0,2.59778 -0.95985,4.93485 -2.48197,6.57891 l 11.92848,24.0605 18.29502,36.90218 c 13.06578,-8.32885 27.83397,-12.73287 42.8391,-12.73287 15.19238,0 29.88142,4.51059 42.82816,12.75296 L 824.0565,67.03995 c -1.49498,-1.64135 -2.43459,-3.95765 -2.43459,-6.52863 0,-4.96165 3.47999,-8.99773 7.75914,-8.99773 4.27803,0 7.758,4.03608 7.758,8.99773 0,4.96232 -3.47997,8.99839 -7.758,8.99839"
                    style="opacity:0.95999995;fill:#4db7c9;fill-opacity:1;fill-rule:nonzero;stroke:#4db7c9;stroke-width:11.25;stroke-linecap:round;stroke-linejoin:round;stroke-miterlimit:4;stroke-dasharray:none;stroke-opacity:1"
                    id="path4507"
                    inkscape:connector-curvature="0"/>
            <text
                    xml:space="preserve"
                    style="font-style:normal;font-variant:normal;font-weight:normal;font-stretch:normal;font-size:181.76339722px;line-height:125%;font-family:'Ubuntu Condensed';-inkscape-font-specification:'Ubuntu Condensed, ';letter-spacing:0px;word-spacing:0px;fill:#4db7c9;fill-opacity:0.96078431;stroke:none;stroke-width:0.82500005;stroke-linecap:round;stroke-linejoin:round;stroke-miterlimit:4;stroke-dasharray:none;stroke-opacity:1"
                    x="859.15295"
                    y="-46.858086"
                    id="text4505-5"
                    transform="scale(1,-1)"><tspan
           sodipodi:role="line"
           id="tspan4503-1"
           x="859.15295"
           y="-46.858086"
           style="font-style:normal;font-variant:normal;font-weight:normal;font-stretch:normal;font-family:'Khmer OS';-inkscape-font-specification:'Khmer OS';fill:#4db7c9;fill-opacity:0.96078431;stroke:none;stroke-width:0.82500005;stroke-linecap:round;stroke-linejoin:round;stroke-miterlimit:4;stroke-dasharray:none;stroke-opacity:1">CUBE</tspan></text>
        </g>
    </g>
</svg>
